<svg width="501" height="179" viewBox="0 0 501 179" fill="none" xmlns="http://www.w3.org/2000/svg">
<path d="M114.733 43.455C116.952 43.455 118.744 44.278 120.108 45.9134C121.468 47.5384 122.16 49.7207 122.192 52.455C122.192 52.8613 122.03 53.2207 121.713 53.5384C121.39 53.8613 121.03 54.0175 120.629 54.0175C120.197 54.0175 119.827 53.8665 119.525 53.5592C119.218 53.2571 119.067 52.8873 119.067 52.455C119.035 50.6113 118.65 49.1738 117.9 48.1425C117.15 47.1009 116.093 46.58 114.733 46.58C113.176 46.58 111.546 46.83 109.838 47.33C108.14 47.83 106.489 48.5175 104.879 49.3925C103.28 50.2571 101.827 51.2207 100.525 52.2884C99.2333 53.3613 98.2021 54.455 97.4417 55.58C96.676 56.705 96.2958 57.7884 96.2958 58.83C96.2958 60.179 97.0667 61.2884 98.6083 62.1634C100.15 63.028 102.16 63.455 104.65 63.455C106.468 63.455 108.463 63.2832 110.629 62.9342H110.588C111.364 62.6998 112.15 62.4915 112.942 62.3092C113.733 62.1165 114.515 61.9498 115.296 61.8092C116.28 61.6425 116.905 62.0592 117.171 63.0592C117.39 64.0175 117.015 64.6582 116.046 64.9759C115.296 65.1738 114.525 65.3509 113.733 65.5175C112.952 65.6738 112.16 65.8248 111.358 65.9759H111.4C107.41 67.0748 103.468 68.4915 99.5667 70.2259C95.676 71.9498 91.9469 73.9082 88.3792 76.1009C84.8219 78.2988 81.5302 80.6165 78.5042 83.0592C75.4729 85.4915 72.8271 87.9707 70.5667 90.4967C68.3167 93.028 66.5719 95.5071 65.3375 97.9342C64.0979 100.351 63.4833 102.632 63.4833 104.768C63.4833 107.877 64.3792 110.153 66.1708 111.601C67.9729 113.044 70.8167 113.768 74.6917 113.768C77.2021 113.768 79.9208 113.32 82.8375 112.434C85.7542 111.559 88.7594 110.361 91.8583 108.851C94.9521 107.34 98.0302 105.601 101.088 103.643C104.155 101.674 107.098 99.5905 109.921 97.3925C112.754 95.1998 115.358 93.0071 117.733 90.8092C118.077 90.5592 118.442 90.4342 118.817 90.4342C119.218 90.4342 119.572 90.5957 119.879 90.9134C120.197 91.2207 120.358 91.58 120.358 91.9967C120.358 92.429 120.202 92.804 119.9 93.1217C117.468 95.3457 114.785 97.5905 111.858 99.8509C108.926 102.117 105.858 104.268 102.65 106.309C99.4521 108.335 96.2229 110.143 92.9625 111.726C89.6969 113.309 86.5094 114.564 83.4 115.497C80.301 116.424 77.4 116.893 74.6917 116.893C69.9833 116.893 66.4104 115.872 63.9833 113.83C61.5667 111.788 60.3583 108.768 60.3583 104.768C60.3583 102.226 61.0719 99.5488 62.5042 96.7259C63.9313 93.9082 65.9313 91.0748 68.5042 88.2259C71.0719 85.3665 74.0667 82.5905 77.4833 79.8925C80.9 77.1842 84.5979 74.6738 88.5875 72.3509C92.5719 70.0332 96.6969 68.0071 100.963 66.2675C98.5719 65.7832 96.676 64.8873 95.275 63.58C93.8688 62.2623 93.1708 60.679 93.1708 58.83C93.1708 57.4446 93.5927 56.0175 94.4417 54.5592C95.301 53.1009 96.4677 51.7207 97.9417 50.4134C99.4104 49.0957 101.077 47.9082 102.942 46.8509C104.801 45.7988 106.744 44.9707 108.775 44.3717C110.817 43.7623 112.801 43.455 114.733 43.455Z" fill="black"/>
<path d="M210.212 62.0176C210.639 62.0488 211.004 62.2155 211.296 62.5176C211.587 62.8248 211.733 63.179 211.733 63.5801C211.733 64.0123 211.577 64.3821 211.275 64.6842C210.968 64.9915 210.598 65.1426 210.171 65.1426H210.087C201.947 64.8248 193.587 64.6634 185.004 64.6634C176.431 64.6634 167.837 64.8509 159.212 65.2259C151.155 74.6738 143.223 84.2988 135.421 94.1009C127.619 103.893 120.124 113.715 112.942 123.58C105.749 133.455 99.0353 143.257 92.7957 152.997C93.0613 153.398 93.004 153.945 92.629 154.643C91.2957 156.861 90.1082 157.976 89.0665 157.976C88.3738 157.976 87.8999 157.757 87.6499 157.33C87.3894 156.913 87.3738 156.34 87.6082 155.622V155.58C87.7749 155.09 88.0457 154.58 88.4207 154.038C94.629 144.215 101.332 134.33 108.525 124.372C115.707 114.413 123.212 104.486 131.046 94.5801C138.879 84.679 146.848 74.9551 154.962 65.4134C146.764 65.7884 138.733 66.3092 130.858 66.9759C122.999 67.6321 115.494 68.4238 108.337 69.3509H108.129C107.686 69.3509 107.317 69.1998 107.025 68.8926C106.723 68.5905 106.567 68.2207 106.567 67.7884C106.567 67.3873 106.707 67.0332 106.983 66.7259C107.249 66.4238 107.567 66.2571 107.942 66.2259C115.624 65.2415 123.665 64.4134 132.067 63.7467C140.468 63.0696 149.009 62.5384 157.692 62.1634C162.942 56.0384 168.322 49.8717 173.837 43.6634C179.348 37.455 185.009 31.2207 190.817 24.955C191.077 24.6217 191.452 24.455 191.942 24.455C192.369 24.455 192.738 24.6113 193.046 24.9134C193.348 25.205 193.504 25.5696 193.504 25.9967C193.504 26.4446 193.358 26.7884 193.067 27.0384C187.952 32.6113 182.796 38.3196 177.587 44.1634C172.379 50.0123 167.16 55.9498 161.942 61.9759C169.968 61.6998 178.046 61.5592 186.171 61.5592C194.296 61.5592 202.306 61.7155 210.212 62.0176Z" fill="black"/>
<path d="M220.139 90.1634C220.566 90.1634 220.936 90.3196 221.243 90.6217C221.545 90.929 221.702 91.2988 221.702 91.7259C221.702 92.2832 221.478 92.6998 221.035 92.9759C218.269 95.0071 215.337 96.8613 212.243 98.5384C209.16 100.205 206.087 101.679 203.035 102.955C199.978 104.221 197.077 105.278 194.327 106.122C191.587 106.971 189.15 107.617 187.014 108.059C184.874 108.518 183.202 108.747 181.993 108.747C178.936 108.747 176.561 108.184 174.868 107.059C173.176 105.934 172.327 104.346 172.327 102.288C172.327 100.929 172.681 99.4863 173.389 97.955C174.098 96.429 175.045 94.9342 176.223 93.4759C177.415 92.0175 178.743 90.6946 180.202 89.4967C181.66 88.304 183.144 87.3509 184.66 86.6425C186.17 85.9342 187.603 85.58 188.952 85.58C190.17 85.58 191.15 85.903 191.889 86.5384C192.624 87.1634 192.993 87.9967 192.993 89.0384C192.993 89.7623 192.733 90.4759 192.223 91.1842C191.723 91.8925 191.04 92.5488 190.181 93.1425C189.332 93.7259 188.41 94.1998 187.41 94.5592C186.42 94.9238 185.42 95.1009 184.41 95.1009C182.42 95.1009 180.827 94.8457 179.618 94.33C178.311 95.7467 177.29 97.1634 176.556 98.58C175.816 99.9863 175.452 101.221 175.452 102.288C175.452 104.512 177.629 105.622 181.993 105.622C183.118 105.622 184.686 105.413 186.702 104.997C188.728 104.58 191.04 103.965 193.639 103.143C196.233 102.309 198.999 101.283 201.931 100.059C204.858 98.8405 207.806 97.429 210.764 95.83C213.723 94.2207 216.54 92.4342 219.223 90.4759C219.457 90.2675 219.764 90.1634 220.139 90.1634ZM189.868 89.0384C189.868 88.929 189.811 88.8457 189.702 88.7884C189.603 88.7363 189.353 88.705 188.952 88.705C188.061 88.705 187.025 88.9863 185.848 89.5384C184.665 90.08 183.452 90.8509 182.202 91.8509C182.811 91.9498 183.545 91.9967 184.41 91.9967C185.504 91.9967 186.457 91.8196 187.264 91.455C188.082 91.0957 188.723 90.6842 189.181 90.2259C189.639 89.7571 189.868 89.3613 189.868 89.0384Z" fill="black"/>
<path d="M233.917 129.309C232.068 129.309 230.657 128.82 229.667 127.851C228.683 126.893 228.188 125.528 228.188 123.768C228.188 122.403 228.578 120.898 229.355 119.247C230.136 117.606 231.203 115.882 232.563 114.08C233.922 112.288 235.464 110.424 237.188 108.497C238.922 106.58 240.756 104.653 242.688 102.705C244.631 100.762 246.568 98.83 248.5 96.9134C250.636 94.8457 252.667 92.8405 254.584 90.8925C256.5 88.9342 258.198 87.1165 259.688 85.4342C261.172 83.7415 262.344 82.2259 263.209 80.8925C264.084 79.5488 264.521 78.4238 264.521 77.5175C264.521 76.9498 264.151 76.304 263.417 75.58C262.677 74.8613 261.417 73.9082 259.625 72.7259C257.219 75.1998 254.698 77.679 252.063 80.1634C249.422 82.653 246.792 84.9967 244.167 87.205C241.542 89.4134 239.047 91.3509 236.688 93.0175C236.448 93.2259 236.146 93.33 235.771 93.33C235.339 93.33 234.969 93.179 234.667 92.8717C234.36 92.5696 234.209 92.1998 234.209 91.7675C234.209 91.2259 234.438 90.7988 234.896 90.4759C237.49 88.6582 240.073 86.6738 242.646 84.5175C245.214 82.3665 247.719 80.1425 250.167 77.8509C252.61 75.5592 254.907 73.2884 257.063 71.0384C255.073 69.705 253.698 68.6321 252.938 67.8092C252.172 66.9915 251.792 66.1582 251.792 65.3092C251.792 64.4759 252.136 63.528 252.834 62.455C253.526 61.3873 254.448 60.2675 255.605 59.1009C256.756 57.9342 258.047 56.7988 259.48 55.6842C260.907 54.5748 262.381 53.58 263.896 52.705C265.407 51.8196 266.86 51.1113 268.25 50.58C269.651 50.0384 270.875 49.7675 271.917 49.7675C272.75 49.7675 273.401 50.0175 273.875 50.5175C274.36 51.0071 274.605 51.679 274.605 52.5384C274.605 53.4446 274.094 54.7571 273.084 56.4759C272.084 58.1842 270.615 60.2259 268.688 62.6009C266.771 64.9655 264.469 67.5905 261.792 70.4759C262.11 70.7988 262.443 71.1113 262.792 71.4134C263.136 71.705 263.464 71.9863 263.771 72.2467C264.865 73.2363 265.782 74.1321 266.521 74.9342C267.256 75.7415 267.625 76.6009 267.625 77.5175C267.625 78.7675 267.146 80.205 266.188 81.83C265.24 83.4446 263.964 85.1842 262.355 87.0592C260.74 88.9342 258.927 90.903 256.917 92.955C254.917 94.9967 252.844 97.054 250.709 99.1217C248.302 101.497 245.948 103.861 243.646 106.205C241.339 108.538 239.256 110.773 237.396 112.913C235.532 115.064 234.052 117.064 232.959 118.913C231.86 120.757 231.313 122.377 231.313 123.768C231.313 124.653 231.5 125.278 231.875 125.643C232.25 126.002 232.927 126.184 233.917 126.184C235.5 126.184 237.485 125.778 239.875 124.976C242.276 124.169 244.98 123.044 247.98 121.601C250.98 120.153 254.167 118.481 257.542 116.58C260.917 114.674 264.381 112.632 267.938 110.455C271.49 108.273 275.026 106.033 278.542 103.726C282.068 101.408 285.459 99.1217 288.709 96.8717C291.969 94.6217 295.006 92.4915 297.813 90.4759C298.047 90.2675 298.355 90.1634 298.73 90.1634C299.157 90.1634 299.521 90.3196 299.813 90.6217C300.115 90.929 300.271 91.2988 300.271 91.7259C300.271 92.2832 300.052 92.6998 299.625 92.9759C296.834 95.0071 293.782 97.1582 290.48 99.4342C287.172 101.715 283.73 104.033 280.146 106.393C276.563 108.736 272.948 111.023 269.313 113.247C265.688 115.465 262.131 117.544 258.646 119.476C255.172 121.403 251.875 123.106 248.75 124.58C245.636 126.049 242.813 127.205 240.271 128.038C237.73 128.882 235.61 129.309 233.917 129.309ZM259.188 68.7467C260.23 67.653 261.365 66.3925 262.605 64.9759C263.855 63.5592 265.073 62.1217 266.271 60.6634C267.464 59.205 268.5 57.8665 269.375 56.6425C270.261 55.4082 270.855 54.4446 271.146 53.7467C271.23 53.4967 271.193 53.3196 271.042 53.205C270.901 53.08 270.688 53.0488 270.396 53.1009C269.646 53.2571 268.74 53.6009 267.688 54.1425C266.646 54.6738 265.542 55.3196 264.375 56.08C263.219 56.8457 262.084 57.6582 260.959 58.5175C259.834 59.3821 258.813 60.2467 257.896 61.1217C256.99 61.9863 256.261 62.7832 255.709 63.5175C255.167 64.2571 254.896 64.8509 254.896 65.3092C254.896 65.6582 256.323 66.804 259.188 68.7467Z" fill="black"/>
<path d="M304.44 108.101C303.774 108.101 303.253 107.856 302.878 107.372C302.503 106.872 302.393 106.278 302.544 105.58C302.628 105.122 303.034 104.325 303.753 103.184C304.477 102.049 305.435 100.663 306.628 99.0384C307.826 97.403 309.201 95.6321 310.753 93.7259C312.321 91.8248 314.003 89.8925 315.794 87.9342C317.597 85.9655 319.461 84.0696 321.378 82.2467C323.305 80.429 325.222 78.7988 327.128 77.3509C327.446 77.1582 327.763 77.0592 328.086 77.0592C328.513 77.0592 328.883 77.2155 329.19 77.5175C329.492 77.8092 329.649 78.1738 329.649 78.6009C329.649 79.1321 329.44 79.554 329.024 79.8717C327.065 81.3457 325.112 83.0071 323.169 84.8509C321.222 86.6998 319.362 88.5905 317.586 90.5175C315.805 92.4498 314.201 94.2884 312.774 96.0384C311.341 97.7884 310.169 99.2988 309.253 100.559C309.076 100.799 309.034 100.971 309.128 101.08C309.211 101.195 309.414 101.153 309.732 100.955C314.826 97.2884 319.232 94.2988 322.94 91.9759C326.659 89.6425 329.815 87.9238 332.399 86.8092C334.982 85.6998 337.076 85.1425 338.69 85.1425C339.815 85.1425 340.696 85.429 341.336 85.9967C341.987 86.554 342.315 87.3405 342.315 88.3509C342.315 89.2415 342.154 90.4238 341.836 91.8925C341.529 93.3665 341.201 94.8248 340.857 96.2675C340.565 97.5175 340.3 98.6582 340.065 99.6842C339.841 100.7 339.732 101.424 339.732 101.851C339.732 102.257 339.847 102.549 340.086 102.726C340.336 102.893 340.779 102.976 341.419 102.976C343.055 102.976 344.987 102.684 347.211 102.101C349.43 101.507 351.862 100.658 354.503 99.5592C357.154 98.4655 359.909 97.1425 362.774 95.6009C365.649 94.0592 368.529 92.3405 371.419 90.4342C371.68 90.2571 371.972 90.1634 372.294 90.1634C372.722 90.1634 373.086 90.3196 373.378 90.6217C373.68 90.929 373.836 91.2988 373.836 91.7259C373.836 92.3405 373.591 92.7675 373.107 93.0175C370.076 95.0175 367.065 96.83 364.065 98.455C361.065 100.07 358.175 101.445 355.399 102.58C352.633 103.721 350.055 104.596 347.669 105.205C345.294 105.804 343.211 106.101 341.419 106.101C339.919 106.101 338.737 105.726 337.878 104.976C337.029 104.226 336.607 103.184 336.607 101.851C336.607 101.257 336.737 100.372 337.003 99.205C337.263 98.028 337.534 96.804 337.815 95.5384C338.159 94.0957 338.482 92.7363 338.774 91.455C339.065 90.1634 339.211 89.33 339.211 88.955C339.211 88.4967 338.982 88.2675 338.524 88.2675C337.534 88.2675 336.321 88.554 334.878 89.1217C333.43 89.679 331.841 90.429 330.107 91.3717C328.383 92.304 326.591 93.3509 324.732 94.5175C322.867 95.6842 321.024 96.8925 319.19 98.1425C317.357 99.3821 315.612 100.58 313.961 101.747C312.321 102.913 310.862 103.965 309.586 104.893C309.393 105.033 309.206 105.174 309.024 105.309C308.831 105.434 308.643 105.57 308.461 105.705C307.227 106.637 306.331 107.268 305.774 107.601C305.206 107.934 304.763 108.101 304.44 108.101Z" fill="black"/>
<path d="M445.151 90.1634C445.552 90.1634 445.912 90.3248 446.235 90.6425C446.552 90.9655 446.714 91.3248 446.714 91.7259C446.714 92.2832 446.485 92.7155 446.026 93.0175C443.829 94.5905 441.407 96.1217 438.756 97.6217C436.099 99.1217 433.386 100.518 430.61 101.809C427.844 103.09 425.136 104.221 422.485 105.205C419.844 106.179 417.443 106.945 415.276 107.497C413.12 108.038 411.339 108.309 409.922 108.309C407.49 108.309 405.631 107.773 404.339 106.705C403.058 105.637 402.422 104.096 402.422 102.08C402.422 100.429 402.802 98.7571 403.568 97.0592C404.329 95.3509 405.204 93.7207 406.193 92.1634C406.427 91.7884 406.474 91.5488 406.339 91.4342C406.214 91.3092 405.974 91.3821 405.631 91.6425C405.339 91.8405 405.047 92.0488 404.756 92.2675C404.474 92.4915 404.177 92.7155 403.86 92.9342C402.204 94.1165 400.422 95.3925 398.506 96.7675C396.589 98.1425 394.636 99.4915 392.651 100.809C390.677 102.117 388.756 103.309 386.881 104.393C385.006 105.476 383.271 106.346 381.672 106.997C380.063 107.637 378.693 107.955 377.568 107.955C376.391 107.955 375.438 107.643 374.714 107.018C373.995 106.382 373.631 105.528 373.631 104.455C373.631 103.304 374.084 102.07 374.985 100.747C375.875 99.4134 377.063 98.0696 378.547 96.705C380.037 95.3457 381.688 94.0488 383.506 92.8092C385.323 91.5748 387.162 90.4655 389.026 89.4759C390.886 88.4915 392.641 87.7207 394.297 87.1634C395.964 86.5957 397.36 86.3092 398.485 86.3092C399.87 86.3092 400.99 86.528 401.839 86.955C402.683 87.3717 403.401 88.054 403.985 88.9967C405.62 87.8196 406.912 86.903 407.86 86.2467C408.802 85.5957 409.532 85.153 410.047 84.9134C410.558 84.6634 410.974 84.5384 411.297 84.5384C411.823 84.5384 412.266 84.7155 412.631 85.0592C412.99 85.4082 413.172 85.8405 413.172 86.3509C413.172 86.8509 412.964 87.4446 412.547 88.1217C412.141 88.7884 411.599 89.6321 410.922 90.6425C410.157 91.7415 409.36 92.9498 408.526 94.2675C407.693 95.5748 406.985 96.903 406.401 98.2467C405.829 99.58 405.547 100.861 405.547 102.08C405.547 103.179 405.881 103.971 406.547 104.455C407.224 104.945 408.349 105.184 409.922 105.184C411.131 105.184 412.724 104.945 414.714 104.455C416.714 103.971 418.948 103.283 421.422 102.393C423.907 101.492 426.485 100.429 429.151 99.205C431.829 97.9707 434.469 96.6165 437.068 95.1425C439.662 93.6738 442.058 92.1165 444.256 90.4759C444.474 90.2675 444.776 90.1634 445.151 90.1634ZM401.422 90.8092C401.115 90.2415 400.766 89.8717 400.381 89.705C400.006 89.528 399.37 89.4342 398.485 89.4342C397.412 89.4342 396.136 89.705 394.651 90.2467C393.162 90.778 391.599 91.4863 389.964 92.3717C388.339 93.2467 386.745 94.2207 385.193 95.2884C383.636 96.3457 382.23 97.4238 380.964 98.5175C379.688 99.6165 378.667 100.658 377.901 101.643C377.141 102.632 376.756 103.45 376.756 104.101C376.756 104.601 377.026 104.851 377.568 104.851C378.959 104.851 380.834 104.236 383.193 102.997C385.537 101.747 388.261 100.07 391.36 97.955C394.469 95.83 397.823 93.4498 401.422 90.8092Z" fill="black"/>
<path d="M332.395 65.8546C332.489 65.8546 332.582 65.8494 332.666 65.8338C333.4 65.8234 334.02 65.5942 334.52 65.1463C335.02 64.688 335.27 64.0317 335.27 63.1671C335.27 62.3078 334.593 61.688 333.249 61.313C332.692 61.1463 332.134 60.9744 331.582 60.7921C331.041 60.6151 330.567 60.3234 330.166 59.9171C329.775 59.5161 329.582 58.9953 329.582 58.3546C329.582 57.4536 329.926 56.7296 330.624 56.188C331.332 55.6359 332.213 55.3546 333.27 55.3546C334.072 55.3546 334.879 55.4953 335.686 55.7713L336.061 55.938V58.3755L335.666 58.5213L335.582 56.7088C334.759 56.0578 334.072 55.7296 333.52 55.7296C332.728 55.7296 332.103 55.9692 331.645 56.438C331.197 56.8963 330.978 57.5109 330.978 58.2713C330.978 58.7192 331.171 59.0786 331.561 59.3546C331.947 59.6203 332.421 59.8286 332.978 59.9796C333.53 60.1359 334.088 60.3078 334.645 60.5005C335.197 60.6984 335.671 61.0109 336.061 61.438C336.447 61.8703 336.645 62.438 336.645 63.1463C336.645 64.0786 336.291 64.8234 335.582 65.3755C334.884 65.9171 333.884 66.188 332.582 66.188C331.291 66.188 330.218 65.8859 329.374 65.2713V62.813L329.749 62.6671L329.874 64.4796C330.067 64.8546 330.421 65.1828 330.936 65.4588C331.463 65.7244 331.947 65.8546 332.395 65.8546Z" fill="black"/>
<path d="M344.29 66.188C342.8 66.188 341.602 65.7661 340.686 64.9171C339.769 64.0578 339.311 62.7505 339.311 61.0005C339.311 59.2401 339.795 57.8546 340.769 56.8546C341.738 55.8546 342.962 55.3546 344.436 55.3546C345.92 55.3546 347.123 55.7869 348.04 56.6463C348.967 57.4953 349.436 58.8026 349.436 60.563C349.436 62.313 348.946 63.688 347.977 64.688C347.003 65.688 345.774 66.188 344.29 66.188ZM344.436 55.7296C343.363 55.7296 342.477 56.1984 341.769 57.1255C341.061 58.0421 340.706 59.3026 340.706 60.8963C340.706 62.4796 341.04 63.6984 341.706 64.5421C342.384 65.3911 343.259 65.813 344.331 65.813C345.399 65.813 346.29 65.3546 346.998 64.438C347.706 63.5109 348.061 62.2505 348.061 60.6671C348.061 59.0838 347.717 57.8703 347.04 57.0213C346.373 56.1619 345.503 55.7296 344.436 55.7296Z" fill="black"/>
<path d="M352.11 66.1255L352.131 65.8338L353.235 65.688C353.36 65.6619 353.423 65.5578 353.423 65.3755V55.813H352.339L352.506 55.6463L353.423 55.4588V52.8546C353.423 51.8703 353.74 51.1619 354.381 50.7296C355.032 50.3026 355.782 50.0838 356.631 50.0838C357.199 50.0838 357.683 50.1619 358.089 50.313L358.027 50.4588C357.678 50.4171 357.381 50.3963 357.131 50.3963C356.881 50.3963 356.636 50.438 356.402 50.5213C356.162 50.5942 355.923 50.7192 355.673 50.8963C355.1 51.313 354.819 52.1359 354.819 53.3546V55.438H357.402V55.813H354.819V65.688L356.631 65.7921C356.631 65.8078 356.621 65.9119 356.61 66.1046L352.11 66.1255Z" fill="black"/>
<path d="M365.496 65.7088L366.329 65.6463L366.392 65.8755C366.376 65.8755 366.277 65.8963 366.1 65.938C365.668 66.0369 365.189 66.0838 364.663 66.0838C364.189 66.0578 363.751 65.9744 363.35 65.8338C362.944 65.6984 362.569 65.4119 362.225 64.9796C361.892 64.5526 361.725 63.9953 361.725 63.313V55.813H360.642L360.808 55.6463L361.746 55.4588L361.913 53.4171L363.121 53.313V55.438H365.704V55.813H363.121V62.938C363.121 64.0213 363.34 64.7609 363.788 65.1463C364.246 65.5213 364.814 65.7088 365.496 65.7088Z" fill="black"/>
<path d="M387.377 55.438C387.377 55.4536 387.382 55.5578 387.397 55.7505L386.147 55.8963L385.377 56.063L381.564 66.1046H380.293L377.793 57.6463L374.918 66.1046H373.627L370.293 56.1463C370.21 55.9953 370.106 55.9119 369.981 55.8963L368.877 55.7713C368.861 55.688 368.856 55.5838 368.856 55.4588L373.335 55.438C373.335 55.4536 373.34 55.5578 373.356 55.7505L371.814 55.8546L374.689 65.4171L377.814 55.5421L378.543 55.438L381.252 65.7713L384.606 56.2088C384.647 56.1255 384.616 56.0578 384.522 56.0005C384.439 55.9484 384.34 55.9119 384.231 55.8963L383.127 55.7713C383.111 55.688 383.106 55.5838 383.106 55.4588L387.377 55.438Z" fill="black"/>
<path d="M395.863 65.2921H395.801C394.509 65.8911 393.259 66.188 392.051 66.188C390.16 66.188 389.16 65.4484 389.051 63.9588C389.035 63.8494 389.03 63.7505 389.03 63.6671C389.03 62.5734 389.744 61.8442 391.176 61.4796C392.035 61.2869 393.577 61.063 395.801 60.813V58.938C395.801 58.3442 395.723 57.8286 395.572 57.3963C395.431 56.9692 395.28 56.6567 395.113 56.4588C394.947 56.2505 394.723 56.0942 394.447 55.9796C394.098 55.8286 393.717 55.7505 393.301 55.7505C392.884 55.7505 392.405 55.8651 391.863 56.0838C391.082 56.4067 390.389 56.813 389.78 57.313L389.697 58.9796L389.28 59.0838V56.5005L389.488 56.4171C390.598 55.9328 391.447 55.6411 392.03 55.5421C392.613 55.4484 393.035 55.3963 393.301 55.3963C393.577 55.3859 393.842 55.3859 394.092 55.3963C394.342 55.4119 394.66 55.4744 395.051 55.5838C395.452 55.6984 395.801 55.8546 396.092 56.063C396.384 56.2713 396.634 56.5838 396.842 57.0005C397.061 57.4067 397.176 57.8911 397.176 58.4588V65.0005C397.176 65.4328 397.29 65.6463 397.53 65.6463L398.822 65.7296L398.801 66.0421C398.009 66.1515 397.301 66.2088 396.676 66.2088C396.494 66.1932 396.311 66.1098 396.134 65.9588C395.952 65.7921 395.863 65.5734 395.863 65.2921ZM392.447 65.8546C393.499 65.8546 394.619 65.4796 395.801 64.7296V61.2296C393.66 61.3026 392.311 61.4276 391.759 61.6046C391.217 61.7713 390.842 62.0421 390.634 62.4171C390.426 62.7921 390.322 63.1671 390.322 63.5421C390.322 63.6151 390.322 63.6828 390.322 63.7505C390.363 64.5005 390.582 65.0421 390.988 65.3755C391.389 65.6984 391.874 65.8546 392.447 65.8546Z" fill="black"/>
<path d="M404.379 56.313V58.0213C405.504 56.3703 406.608 55.5317 407.692 55.5005C407.775 55.5005 407.858 55.5005 407.942 55.5005L409.15 55.6463L408.588 56.938C408.322 56.6619 407.973 56.5213 407.546 56.5213C406.504 56.5369 405.447 57.2296 404.379 58.6046V65.688L406.192 65.7921C406.192 65.8078 406.181 65.9119 406.171 66.1046L401.692 66.1255C401.692 66.0005 401.697 65.9067 401.713 65.8338L402.838 65.688C402.947 65.6619 403.004 65.5578 403.004 65.3755V56.1255C402.973 56.0317 402.931 55.9796 402.879 55.9796L401.588 55.938L401.608 55.6255C402.384 55.5005 402.968 55.438 403.358 55.438C403.759 55.438 404.03 55.5369 404.171 55.7296C404.306 55.9119 404.379 56.1046 404.379 56.313Z" fill="black"/>
<path d="M413.202 61.188C413.202 64.2713 414.395 65.813 416.786 65.813C417.411 65.813 418.077 65.7453 418.786 65.6046C419.494 65.4692 419.942 65.3442 420.14 65.2296L420.306 65.438C419.973 65.6619 419.431 65.8442 418.681 65.9796C417.942 66.1151 417.265 66.188 416.64 66.188C416.015 66.188 415.458 66.1255 414.973 66.0005C414.484 65.8755 413.984 65.6567 413.473 65.3338C412.958 65.0005 412.546 64.4901 412.244 63.7921C411.952 63.0838 411.806 62.2296 411.806 61.2296C411.806 59.3442 412.291 57.9067 413.265 56.9171C414.265 55.8755 415.431 55.3546 416.765 55.3546C418.109 55.3546 419.129 55.7244 419.827 56.4588C420.536 57.1984 420.89 58.2401 420.89 59.5838C420.89 59.8651 420.869 60.1671 420.827 60.5005H413.223C413.208 60.6567 413.202 60.8859 413.202 61.188ZM419.64 59.4171C419.64 58.3651 419.4 57.4953 418.931 56.813C418.458 56.1359 417.817 55.7921 417.015 55.7921C415.958 55.7921 415.067 56.2609 414.348 57.188C413.765 57.9119 413.4 58.8755 413.265 60.0838H419.619C419.629 59.9328 419.64 59.7088 419.64 59.4171Z" fill="black"/>
</svg>
